<?xml version="1.0" standalone="no"?>
<!DOCTYPE svg PUBLIC "-//W3C//DTD SVG 20010904//EN"
 "http://www.w3.org/TR/2001/REC-SVG-20010904/DTD/svg10.dtd">
<svg version="1.0" xmlns="http://www.w3.org/2000/svg"
 width="626.000000pt" height="626.000000pt" viewBox="0 0 626.000000 626.000000"
 preserveAspectRatio="xMidYMid meet">

<g transform="translate(0.000000,626.000000) scale(0.100000,-0.100000)"
fill="#000000" stroke="none">
<path d="M2600 5076 c12 -21 21 -38 19 -40 -2 -1 -53 -20 -114 -40 -300 -102
-565 -267 -788 -493 -128 -129 -188 -203 -279 -343 -148 -227 -245 -478 -295
-765 -23 -133 -23 -502 -1 -620 l16 -80 -26 -30 c-100 -119 -97 -309 8 -427
l39 -44 -90 -39 c-95 -41 -116 -59 -30 -26 28 10 51 16 51 13 0 -8 -50 -42
-95 -66 -16 -8 -26 -15 -22 -16 4 0 25 9 47 20 22 11 45 20 52 19 7 0 -1 -7
-19 -15 -42 -18 -52 -35 -15 -24 16 4 39 13 50 19 26 14 35 14 27 0 -4 -5 -32
-22 -62 -36 -45 -21 -52 -28 -38 -36 12 -6 43 0 107 23 50 17 92 29 94 27 2
-2 -37 -23 -88 -47 -50 -24 -86 -46 -80 -48 6 -2 20 1 31 7 11 6 26 11 33 11
7 -1 -4 -10 -25 -21 -44 -23 -48 -34 -9 -24 26 6 26 6 7 -9 -14 -10 5 -7 58 9
130 41 131 27 2 -35 -112 -55 -142 -74 -79 -50 20 8 29 8 34 -1 5 -8 21 -5 54
9 55 25 61 20 8 -7 -52 -28 -25 -26 54 4 73 27 86 13 17 -19 -42 -20 -80 -62
-45 -49 9 3 26 14 37 23 26 22 85 53 92 47 5 -5 -92 -66 -150 -93 -40 -19 -41
-21 -27 -44 8 -13 15 -12 57 2 57 19 103 30 103 24 0 -2 -24 -18 -52 -35 -61
-35 -59 -39 6 -11 69 29 55 15 -24 -25 -73 -37 -86 -47 -47 -38 22 5 22 5 2
-11 -11 -10 -15 -15 -10 -13 22 10 115 36 115 31 0 -2 -24 -15 -53 -28 -68
-32 -34 -33 43 -2 33 14 60 23 60 21 0 -3 -54 -38 -115 -73 l-40 -23 50 6 c28
3 64 8 80 10 20 3 7 -6 -39 -28 -53 -25 -65 -35 -52 -40 26 -10 33 -8 16 4
-12 8 -10 10 9 5 13 -3 32 -1 41 4 30 16 120 50 120 45 0 -3 -27 -18 -59 -35
-66 -33 -147 -86 -116 -76 l20 6 -20 -16 -20 -17 20 8 c72 26 160 55 169 55 6
-1 -5 -9 -24 -20 -64 -35 -24 -21 184 65 l207 86 67 -59 c255 -225 559 -376
902 -450 117 -25 142 -26 375 -26 233 0 258 1 376 27 299 64 569 190 814 382
44 35 93 77 109 94 17 17 34 31 39 31 4 0 111 -40 235 -89 239 -93 310 -117
227 -77 -54 26 -49 35 6 12 51 -20 92 -29 84 -17 -3 6 -43 31 -88 55 -45 25
-80 46 -77 46 3 0 47 -13 98 -30 97 -31 151 -40 92 -14 -18 8 -41 22 -50 30
-8 8 -24 21 -35 29 -18 12 -13 13 43 11 68 -4 71 4 7 24 -62 20 -108 41 -102
46 2 3 31 -4 62 -15 32 -11 61 -18 66 -16 4 3 20 1 36 -5 l28 -10 -28 25 c-24
21 -27 28 -17 40 7 8 22 15 34 15 20 1 20 2 -4 15 -30 17 -44 19 -34 4 4 -8
-1 -9 -17 -4 -51 16 -73 28 -62 32 7 2 21 0 32 -6 24 -14 44 -14 36 -2 -3 6 9
7 31 4 33 -5 36 -4 30 15 -5 15 -2 21 11 24 13 3 1 13 -37 33 -65 33 -54 44
16 15 27 -11 41 -14 32 -7 -10 8 -14 18 -10 22 4 5 1 5 -5 1 -7 -4 -13 -2 -13
3 0 6 -10 11 -22 11 -13 0 -32 7 -42 15 -19 15 -19 15 1 15 11 0 36 -6 54 -14
19 -7 47 -16 63 -20 23 -6 27 -4 23 8 -4 10 -1 16 8 16 8 0 15 5 15 11 0 6 -7
8 -17 5 -10 -4 -14 -4 -10 1 5 4 -29 26 -75 50 -92 46 -82 57 16 18 46 -19 70
-23 87 -17 23 9 22 10 -14 27 -49 23 -42 29 13 10 64 -23 81 -17 30 9 -25 13
-49 22 -54 18 -5 -3 -6 0 -2 6 4 7 -19 25 -61 46 -69 36 -73 49 -5 20 20 -9
55 -17 77 -19 22 -1 50 -6 63 -10 32 -11 28 11 -5 24 -35 14 -115 65 -88 56
11 -4 39 -14 63 -22 45 -16 73 -11 31 6 -13 5 -34 17 -46 27 -12 11 -30 24
-40 31 -10 7 9 3 41 -7 115 -38 72 -15 -155 84 l-57 25 44 130 c27 81 56 148
78 178 120 168 146 365 71 546 -5 12 -2 17 9 17 9 0 16 6 16 13 0 26 -58 103
-103 137 -25 19 -47 38 -47 42 0 4 15 4 34 1 l34 -5 -18 98 c-57 310 -146 537
-306 779 -345 521 -866 840 -1479 906 -123 13 -358 6 -495 -15 -81 -12 -87
-12 -135 10 -27 12 -65 25 -84 29 l-34 7 23 -36z m151 -64 c54 -43 96 -90 131
-147 26 -42 127 -266 147 -324 16 -50 12 -73 -5 -27 -20 55 -27 58 -20 11 l5
-40 -10 40 c-22 85 -61 195 -70 201 -6 3 -8 -6 -4 -23 3 -15 -4 -3 -15 27 -29
76 -57 131 -81 160 l-21 25 21 -38 c22 -39 52 -142 50 -173 0 -11 -2 -14 -4
-9 -1 6 -11 37 -21 70 -27 92 -67 170 -119 230 -54 64 -49 70 16 17z m361
-125 c-27 -30 -62 -77 -76 -105 -15 -29 -30 -52 -34 -52 -4 0 -18 26 -32 57
-14 31 -37 74 -52 95 -16 21 -28 40 -28 42 0 8 54 13 164 15 l109 1 -51 -53z
m256 37 l33 -5 -60 -64 c-33 -36 -79 -96 -102 -135 -22 -38 -43 -70 -46 -70
-10 0 13 150 38 252 l10 38 47 -6 c26 -3 62 -7 80 -10z m-174 -16 c-4 -7 -19
-28 -32 -45 -13 -18 -22 -33 -19 -33 3 0 -3 -27 -13 -59 -11 -32 -22 -87 -25
-122 -12 -119 -13 -121 -45 -50 -26 59 -27 67 -15 101 22 63 62 133 100 178
34 39 66 58 49 30z m276 -13 c0 -7 -71 -135 -75 -135 -6 0 17 64 28 78 7 9 6
11 -4 7 -8 -3 -22 -19 -32 -37 -10 -17 -20 -28 -24 -24 -3 3 -12 1 -20 -5 -24
-21 -13 6 19 45 38 46 108 92 108 71z m225 -42 c570 -183 1037 -660 1211
-1237 13 -44 24 -80 24 -81 0 -1 -31 -5 -68 -8 -37 -3 -92 -15 -122 -26 -30
-12 -56 -21 -58 -21 -13 0 -53 121 -63 190 -7 47 -16 90 -21 97 -5 7 -26 17
-46 23 -20 7 -47 24 -59 38 -12 14 -25 23 -29 19 -4 -3 -1 -13 6 -22 15 -18
15 -18 -24 -30 -25 -9 -31 -19 -48 -78 -30 -111 -66 -187 -126 -266 -32 -40
-65 -86 -76 -103 -13 -20 -25 -28 -40 -26 -13 2 -19 9 -17 18 3 8 7 39 9 68 3
45 8 54 32 67 39 20 78 69 90 115 27 101 -55 200 -166 200 -18 0 -21 6 -21 41
0 48 -25 85 -77 115 -20 11 -34 23 -31 26 3 3 -1 11 -10 18 -29 24 -15 28 37
12 66 -22 158 -114 178 -179 8 -25 8 -24 9 15 1 38 -5 49 -45 92 -35 38 -63
55 -127 80 -87 35 -117 59 -117 94 0 16 10 25 35 35 19 7 35 19 35 27 0 8 10
14 25 14 29 0 45 26 45 71 l0 33 -29 -28 -30 -28 -27 21 c-39 31 -71 27 -93
-11 -36 -60 -51 -70 -101 -64 -25 3 -80 8 -122 12 -43 4 -78 9 -78 12 0 20
150 101 247 132 l84 27 -40 17 c-82 32 -256 17 -390 -34 -29 -12 -55 -19 -58
-17 -7 7 93 127 174 210 42 42 70 77 62 77 -8 0 -38 -6 -67 -14 -29 -7 -52 -9
-52 -4 0 16 76 112 118 150 23 21 42 39 42 41 0 2 -33 0 -72 -4 -68 -7 -106
-16 -151 -34 -16 -7 -15 -1 8 46 15 30 36 66 47 82 23 32 22 32 183 -20z
m-988 -65 c11 -57 19 -104 18 -106 -1 -1 -35 13 -76 32 -69 31 -169 60 -178
51 -2 -3 6 -12 18 -22 21 -18 20 -18 -66 -18 -68 0 -97 -5 -128 -20 -46 -23
-112 -86 -139 -135 l-19 -33 24 7 c123 34 266 29 381 -14 50 -19 184 -98 176
-105 -1 -1 -34 4 -73 13 -38 8 -113 16 -165 16 -127 1 -201 -31 -260 -114
l-18 -25 132 -1 c89 0 141 -5 161 -14 29 -14 28 -14 -50 -21 -44 -3 -96 -13
-116 -22 -39 -17 -139 -93 -139 -105 0 -4 50 -6 111 -4 91 3 123 -1 178 -17
72 -23 126 -50 100 -51 -45 -1 -239 -115 -239 -141 0 -5 20 -9 44 -9 45 0 120
-12 190 -31 l41 -11 -80 -23 c-80 -24 -98 -22 -124 9 -23 28 -100 66 -151 76
-77 15 -105 5 -136 -47 -37 -64 -88 -118 -160 -169 -129 -92 -190 -188 -201
-314 -6 -66 -8 -71 -38 -90 -73 -45 -142 -147 -166 -246 -7 -27 -13 -51 -15
-53 -2 -2 -22 8 -46 22 -42 24 -179 77 -200 77 -16 0 -3 -91 20 -142 29 -64
106 -164 153 -198 23 -17 61 -35 83 -42 51 -14 48 -12 40 -31 -5 -13 -15 -11
-72 16 -51 24 -81 32 -124 32 -45 0 -54 3 -46 13 8 9 8 16 1 23 -7 7 -16 2
-27 -15 -23 -36 -32 -32 -40 16 -28 174 -24 435 9 617 105 575 497 1083 1040
1348 112 55 293 122 331 123 18 0 23 -11 41 -102z m792 -80 c-24 -18 -47 -33
-51 -33 -3 0 -10 -4 -15 -9 -5 -5 -3 -6 5 -2 8 5 -13 -28 -45 -72 -32 -44 -80
-114 -106 -156 -26 -41 -61 -89 -77 -105 -17 -16 -30 -38 -31 -48 0 -11 -3
-13 -6 -5 -3 7 1 26 7 43 23 54 2 42 -29 -17 -33 -65 -42 -54 -11 14 10 23 17
42 15 42 -7 0 -27 -41 -46 -95 -10 -27 -18 -42 -19 -32 0 10 13 52 30 95 66
169 199 320 345 388 71 33 86 30 34 -8z m-965 -21 c14 -10 1 -12 -78 -10 -63
2 -108 -2 -135 -12 -51 -18 -53 -12 -3 14 45 24 187 29 216 8z m279 -112 c72
-60 167 -202 167 -251 0 -26 -54 23 -89 82 -19 30 -35 54 -37 54 -4 0 12 -44
26 -71 10 -18 10 -19 -24 -2 -27 13 -47 37 -86 105 -28 48 -74 113 -103 144
l-51 56 69 -35 c39 -19 96 -56 128 -82z m647 -105 c-47 -44 -81 -80 -76 -80 6
0 1 -7 -10 -16 -10 -8 -12 -12 -4 -8 9 4 12 3 7 -2 -5 -5 -13 -9 -19 -9 -5 0
-21 -15 -36 -33 -15 -18 -37 -34 -49 -37 -23 -4 -23 -4 -5 30 22 42 98 131
136 158 16 12 26 16 22 9 -5 -8 -2 -10 8 -6 9 3 14 11 13 17 -1 6 3 12 8 12 6
1 26 11 45 23 19 12 37 22 40 22 2 0 -34 -36 -80 -80z m-904 -65 c18 -15 17
-16 -16 -9 -19 4 -57 10 -85 14 l-50 8 66 1 c45 1 71 -4 85 -14z m191 -22 c20
-13 39 -43 27 -43 -8 0 -94 60 -94 66 0 8 42 -7 67 -23z m205 -112 c51 -43 98
-108 98 -133 0 -17 -3 -16 -22 7 -30 35 -88 97 -67 71 9 -12 20 -37 24 -56 l8
-35 -25 30 c-14 17 -40 56 -57 87 -18 31 -39 62 -46 68 -8 7 -15 17 -15 22 0
12 53 -19 102 -61z m713 35 c-38 -18 -93 -51 -121 -74 -49 -39 -187 -92 -202
-77 -3 3 3 8 15 11 12 3 24 13 27 21 4 10 -4 7 -24 -7 -17 -12 -28 -25 -25
-30 3 -4 -14 -18 -38 -30 l-42 -22 50 52 c71 74 310 188 395 189 33 0 30 -2
-35 -33z m-215 -22 c0 -3 -16 -12 -36 -20 -45 -19 -116 -65 -127 -82 -5 -7
-13 -10 -18 -6 -5 3 -8 1 -7 -4 3 -9 -87 -112 -108 -125 -21 -12 -11 29 15 57
17 19 8 15 -27 -14 -29 -24 -62 -59 -73 -77 -23 -36 -32 -43 -22 -15 26 70
136 179 233 231 81 44 170 72 170 55z m-693 -45 c70 -34 178 -131 207 -187 30
-58 9 -48 -66 30 -40 41 -64 63 -53 49 11 -14 31 -41 44 -59 21 -31 21 -33 3
-23 -31 17 -103 104 -97 119 3 7 1 11 -4 8 -4 -3 -17 4 -27 16 -11 11 -37 34
-58 49 -51 38 -30 37 51 -2z m-144 -6 c60 -26 50 -30 -58 -24 -24 1 -27 3 -15
12 12 8 9 9 -12 5 -18 -4 -28 -2 -28 5 0 8 -16 10 -51 7 -27 -3 -47 -2 -42 3
23 22 146 17 206 -8z m1337 -3 c26 -26 25 -45 -2 -64 -28 -20 -48 -20 -48 -1
0 8 -5 24 -12 34 -9 15 -9 23 1 35 18 21 37 20 61 -4z m-72 -104 c3 -45 2 -47
-33 -62 -52 -21 -69 -15 -73 24 -4 36 14 66 34 58 7 -2 20 4 30 15 26 29 39
18 42 -35z m-1183 -13 c95 -36 145 -70 210 -141 l40 -44 -37 23 c-19 13 -33
28 -30 33 3 5 -2 7 -10 4 -19 -8 -274 126 -270 142 1 6 -2 9 -8 5 -5 -3 -22 1
-37 9 l-28 15 40 -6 c22 -3 80 -21 130 -40z m905 27 c0 -5 -7 -10 -16 -10 -8
0 -35 -9 -60 -20 -24 -12 -50 -17 -57 -13 -7 4 -5 -2 3 -12 12 -15 12 -17 1
-10 -8 4 -39 11 -70 15 l-56 7 39 17 c69 31 216 49 216 26z m60 -20 c-8 -5
-23 -10 -33 -10 -10 0 -31 -7 -47 -15 -17 -9 -30 -13 -30 -10 0 9 83 45 105
45 17 0 17 -2 5 -10z m71 -1 c-16 -6 -28 -6 -35 1 -7 7 1 10 25 9 32 0 33 -1
10 -10z m-126 -39 c-3 -5 -12 -10 -18 -10 -7 0 -6 4 3 10 19 12 23 12 15 0z
m-65 -10 c0 -5 -5 -10 -11 -10 -5 0 -7 5 -4 10 3 6 8 10 11 10 2 0 4 -4 4 -10z
m-145 -10 c4 -6 -13 -10 -42 -11 -44 -1 -45 -2 -18 -10 22 -6 18 -7 -19 -3
-36 4 -46 3 -41 -7 5 -8 4 -10 -4 -5 -14 9 -83 -13 -76 -24 3 -5 0 -12 -6 -16
-8 -4 -9 -3 -5 4 4 7 1 12 -8 12 -19 0 -30 -17 -14 -22 7 -3 5 -7 -6 -11 -11
-5 -15 -3 -10 5 5 8 2 9 -9 5 -10 -3 -17 -2 -17 3 0 13 56 51 108 71 51 19
157 25 167 9z m526 -39 c17 -22 32 -43 33 -47 0 -5 -14 -11 -33 -15 -30 -6
-38 -3 -67 25 -19 18 -34 36 -34 39 0 7 50 36 62 37 4 0 21 -18 39 -39z m-321
-9 c0 -4 -13 -16 -29 -25 -17 -10 -35 -32 -42 -50 l-12 -33 -36 18 c-20 9 -61
24 -91 32 l-55 14 30 12 c17 7 65 13 107 13 60 0 75 2 71 13 -4 10 4 14 26 14
17 0 31 -4 31 -8z m187 -22 c30 -11 59 -49 52 -68 -5 -14 -99 48 -99 65 0 16
8 16 47 3z m-1148 -20 c69 -12 126 -36 154 -68 l19 -21 -48 15 c-26 8 -50 12
-52 9 -3 -3 1 -5 8 -5 7 0 11 -2 8 -5 -2 -3 -30 4 -61 14 -30 11 -99 25 -152
31 -52 7 -94 14 -92 17 6 6 88 21 122 22 17 0 59 -4 94 -9z m995 -16 c4 -10 1
-14 -6 -12 -15 5 -23 28 -10 28 5 0 13 -7 16 -16z m-776 -39 c48 -25 85 -55
112 -90 10 -14 3 -11 -22 8 -37 27 -50 25 -26 -3 7 -8 -16 12 -52 45 -35 33
-66 61 -69 63 -2 1 -1 2 3 2 4 0 28 -11 54 -25z m527 1 c19 -8 35 -17 35 -18
0 -2 -30 -4 -68 -4 -37 -1 -78 -4 -92 -8 -19 -6 -21 -5 -10 3 8 6 29 11 45 12
23 1 25 3 8 6 -32 6 -126 -13 -173 -36 -45 -21 -52 -15 -15 12 63 46 200 62
270 33z m638 -17 c9 -12 17 -29 17 -38 -1 -14 -2 -14 -11 2 -6 9 -13 15 -17
13 -4 -2 -23 9 -42 26 l-35 30 35 -6 c19 -3 43 -16 53 -27z m-1759 3 c3 -5 -1
-26 -8 -48 -8 -21 -16 -57 -19 -79 -4 -25 3 -12 19 38 22 70 38 90 57 71 3 -4
-1 -17 -10 -30 -19 -30 -14 -161 9 -214 l16 -35 -5 42 c-6 46 2 93 16 93 5 0
15 -24 21 -52 17 -69 40 -115 106 -204 61 -82 73 -120 18 -55 -46 54 -55 47
-14 -12 18 -24 30 -53 28 -63 -3 -16 -7 -13 -22 14 -22 43 -31 36 -12 -9 8
-20 10 -42 6 -54 -7 -18 -10 -15 -26 20 l-19 40 -5 -55 -5 -55 -13 84 c-14 88
-46 186 -64 197 -8 5 -9 1 -4 -12 30 -75 47 -254 25 -254 -6 0 -9 7 -5 15 3 8
0 14 -6 12 -6 -1 -20 23 -30 53 l-18 55 5 -53 c3 -29 8 -59 11 -67 4 -10 0
-15 -14 -15 -15 0 -26 14 -43 55 -12 30 -24 53 -26 52 -2 -2 4 -27 13 -57 14
-48 14 -54 -1 -69 -14 -14 -17 -14 -25 -1 -18 28 -40 113 -41 159 0 39 -2 42
-10 23 -10 -25 2 -128 20 -175 13 -34 14 -47 3 -47 -11 0 -39 60 -57 125 l-15
50 6 -45 c3 -25 15 -69 25 -99 33 -94 3 -77 -33 19 -21 55 -24 23 -4 -43 14
-45 13 -46 -6 -36 -11 6 -17 17 -14 25 3 8 2 12 -3 9 -13 -8 -19 5 -41 87 -19
73 -19 73 -19 27 -1 -25 5 -66 13 -91 13 -46 13 -46 -11 -51 -18 -3 -27 2 -38
22 l-15 26 6 -26 c9 -42 -23 -47 -42 -6 l-15 32 6 -30 c4 -16 7 -34 8 -39 1
-4 -3 -10 -9 -13 -16 -5 -35 47 -44 115 -6 50 -8 53 -14 30 -5 -16 -12 -28
-17 -28 -10 0 16 69 32 84 16 17 10 26 -21 26 -24 0 -30 4 -31 23 -1 21 -1 21
-8 -2 -4 -14 -13 -27 -20 -29 -19 -6 -7 81 20 151 25 66 65 111 160 180 84 61
129 109 158 166 18 35 23 38 65 39 24 1 47 -2 50 -6z m506 -22 c8 -5 11 -10 5
-10 -5 0 -17 5 -25 10 -8 5 -10 10 -5 10 6 0 17 -5 25 -10z m781 -52 c22 -24
39 -46 39 -49 0 -3 -38 7 -84 22 -46 15 -107 30 -136 34 -82 11 -37 29 51 21
46 -5 69 -4 69 3 0 22 23 10 61 -31z m-815 7 c27 -8 63 -24 79 -36 l30 -21
-30 7 c-16 4 -39 9 -50 11 -11 1 -47 8 -80 13 -78 14 -136 14 -115 1 8 -5 24
-10 36 -10 11 0 45 -7 75 -16 l54 -17 -40 -12 c-59 -17 -96 -39 -133 -78 l-33
-34 68 23 c75 26 208 35 166 11 -35 -19 -127 -110 -163 -160 -18 -26 -36 -44
-40 -42 -4 2 -27 35 -52 72 -59 88 -72 133 -64 216 l7 65 62 10 c95 14 168 14
223 -3z m547 -19 c18 -7 41 -24 52 -36 l20 -23 -25 6 c-14 3 -43 9 -65 13
l-40 8 35 8 c23 4 9 6 -40 4 -41 -2 -84 -7 -95 -11 -15 -6 -17 -5 -9 4 14 16
82 40 112 41 12 0 37 -6 55 -14z m180 -64 c9 -8 17 -19 17 -24 0 -18 -32 -6
-62 23 l-33 31 30 -8 c17 -3 38 -14 48 -22z m253 10 c25 -20 44 -53 44 -78 0
-13 -5 -10 -21 10 -11 14 -30 31 -41 37 -20 11 -20 10 -4 -12 16 -24 22 -79 9
-79 -12 1 -53 92 -53 118 0 27 35 30 66 4z m282 0 c43 -28 71 -112 37 -112 -9
0 -20 11 -25 24 -14 37 -48 64 -91 71 -39 7 -50 19 -26 28 23 10 82 3 105 -11z
m546 2 c25 -10 18 -24 -11 -24 -38 0 -73 10 -73 21 0 10 60 12 84 3z m-371
-45 c24 -11 53 -56 42 -67 -3 -3 -15 4 -28 16 -12 11 -34 24 -49 27 -16 4 -28
13 -28 21 0 17 30 18 63 3z m371 -3 c20 5 23 0 37 -78 11 -58 35 -124 77 -213
95 -205 115 -300 87 -421 -20 -88 -65 -165 -125 -213 l-44 -36 31 40 c30 39
58 104 48 113 -2 3 -9 -6 -14 -19 -5 -14 -30 -47 -56 -74 -40 -42 -41 -43 -10
-6 36 42 71 109 61 118 -2 2 -12 -11 -21 -30 -9 -19 -28 -45 -42 -58 l-25 -24
21 42 c28 56 27 65 -4 28 l-25 -30 4 50 c3 28 3 42 0 31 -5 -14 -12 -4 -30 39
-13 32 -40 77 -61 99 -21 23 -49 63 -62 89 -14 27 -44 66 -68 87 -27 24 -42
44 -40 56 2 11 23 51 48 89 62 95 61 95 51 95 -5 0 -15 -12 -23 -27 -8 -15
-26 -41 -42 -57 -15 -16 -26 -34 -24 -40 2 -5 -5 -18 -15 -28 -10 -10 -16 -24
-12 -30 5 -8 1 -9 -10 -5 -10 4 -22 7 -28 7 -5 0 12 26 39 58 27 31 64 81 83
110 34 53 44 64 34 37 -4 -8 -2 -15 4 -15 13 0 35 56 71 187 11 40 13 42 37
33 14 -6 35 -8 48 -4z m-1286 -13 c5 -18 -10 -16 -34 2 -18 15 -18 15 5 13 14
-2 26 -9 29 -15z m-828 -114 c7 -13 31 -49 53 -79 l40 -55 -41 39 c-42 40 -79
111 -87 168 -4 29 -3 28 9 -8 8 -23 20 -52 26 -65z m1742 56 c16 -14 26 -25
21 -25 -11 1 -70 50 -59 50 4 0 21 -11 38 -25z m-1269 -10 c-3 -9 -8 -14 -10
-11 -3 3 -2 9 2 15 9 16 15 13 8 -4z m167 -62 c13 31 30 57 36 57 7 0 24 -13
37 -30 32 -37 37 -37 37 -2 1 26 2 26 21 -11 11 -22 23 -36 26 -33 3 3 0 14
-8 23 -8 10 1 7 21 -8 26 -20 37 -38 46 -75 10 -45 11 -47 16 -19 4 28 5 27
13 -15 6 -34 10 -40 15 -25 6 16 16 1 49 -69 22 -49 41 -91 41 -94 0 -3 -16 9
-35 28 -51 49 -43 30 15 -36 55 -63 59 -81 35 -160 -18 -61 -18 -78 1 -39 15
30 15 30 9 3 -8 -41 -24 -78 -32 -78 -5 0 -39 41 -77 91 l-68 91 -20 -33 c-11
-19 -34 -49 -51 -66 -25 -27 -33 -31 -46 -20 -14 11 -14 10 -2 -6 13 -17 16
-16 48 15 19 18 42 45 51 61 9 15 20 27 25 27 4 0 5 -4 2 -10 -3 -5 -3 -10 2
-10 4 0 19 -17 33 -38 14 -20 42 -56 63 -79 l39 -42 -23 -37 c-12 -20 -39 -56
-59 -79 -35 -40 -39 -42 -54 -27 -9 9 -16 14 -16 11 0 -3 11 -16 24 -29 l25
-23 66 102 c38 59 71 123 79 153 18 70 26 48 16 -43 -11 -100 -44 -226 -65
-249 -10 -11 -62 -33 -117 -50 -55 -17 -99 -33 -97 -35 6 -5 179 35 201 46 34
19 -28 -85 -82 -135 -49 -46 -149 -87 -204 -85 -27 2 -28 2 -6 6 39 6 124 34
134 44 14 12 5 11 -44 -6 -57 -20 -75 -18 -25 3 58 25 100 49 113 64 6 8 -19
-1 -56 -19 -37 -18 -94 -38 -127 -44 -73 -14 -215 -6 -273 15 -24 8 -40 11
-37 6 5 -8 75 -34 120 -43 11 -3 2 -3 -20 -1 -22 2 -51 7 -65 10 -14 4 -22 3
-17 -1 4 -5 38 -17 75 -26 63 -17 64 -18 17 -12 -117 14 -191 53 -257 136 -21
27 -38 44 -38 39 0 -6 16 -31 35 -56 37 -49 38 -65 1 -19 -25 31 -76 115 -76
125 0 4 10 3 23 -2 29 -12 194 -50 215 -49 9 0 -33 15 -94 33 -166 48 -169 51
-193 206 -26 167 -31 226 -22 260 l9 35 2 -30 c1 -16 10 -52 21 -80 11 -27 17
-39 15 -25 -5 24 -4 24 10 5 14 -18 16 -17 62 28 43 43 67 87 38 70 -32 -18
-86 -66 -86 -76 0 -6 16 4 35 23 19 18 37 31 40 29 2 -3 -11 -21 -30 -39 -28
-27 -38 -31 -47 -22 -7 7 -13 18 -13 25 0 7 -6 38 -14 69 -7 32 -9 63 -5 69 3
6 7 28 8 48 3 40 45 132 81 177 l24 29 1 -37 c0 -41 10 -47 30 -22 11 12 11
15 0 12 -20 -5 -29 43 -13 75 13 25 86 87 104 87 4 0 5 -10 2 -22 -4 -22 -4
-23 11 -4 9 11 16 23 16 26 0 7 45 30 60 30 4 0 2 -25 -4 -55 -15 -61 -8 -62
46 -11 32 31 38 32 38 9 1 -14 6 -11 24 11 14 16 22 36 19 45 -2 9 13 -15 34
-54 l38 -69 25 57z m175 57 c10 -11 16 -20 13 -20 -3 0 -13 9 -23 20 -10 11
-16 20 -13 20 3 0 13 -9 23 -20z m-195 -45 c0 -5 -5 -3 -10 5 -5 8 -10 20 -10
25 0 6 5 3 10 -5 5 -8 10 -19 10 -25z m1361 -19 c-14 -36 -22 -33 -9 5 6 16
12 28 14 26 3 -2 0 -16 -5 -31z m-901 -26 c0 -13 -72 -96 -79 -90 -20 16 26
90 56 90 8 0 11 5 7 12 -4 7 -3 8 4 4 7 -4 12 -11 12 -16z m375 -60 c8 -16 14
-44 14 -62 -1 -18 -3 -25 -6 -15 -2 9 -9 17 -14 17 -5 0 -9 8 -9 18 0 9 -5 24
-11 32 -8 12 -9 10 -4 -7 6 -24 -3 -73 -15 -73 -4 0 -12 19 -19 42 -7 23 -19
52 -28 64 -14 21 -13 23 14 26 38 5 60 -7 78 -42z m1085 -1 c25 -5 56 -18 70
-27 l25 -16 -40 -8 c-22 -4 -51 -7 -65 -6 -19 0 -16 2 10 8 30 6 32 8 16 15
-13 5 -42 3 -80 -7 -64 -17 -88 -16 -42 1 14 6 26 12 26 14 0 9 -92 -14 -130
-32 -39 -19 -40 -19 -50 -1 -12 23 10 37 85 56 63 15 117 16 175 3z m-3130
-138 c0 -5 -6 -11 -12 -13 -7 -3 -14 -18 -15 -34 -3 -70 -16 -154 -23 -154 -4
0 -7 -7 -6 -16 0 -9 -5 -19 -13 -22 -9 -3 -11 1 -6 17 9 30 -9 26 -24 -5 -6
-15 -14 -25 -16 -22 -10 9 25 105 56 153 22 36 25 45 11 31 -25 -22 -112 -187
-112 -212 0 -16 -1 -16 -15 2 -14 19 -14 19 -15 -3 0 -23 -20 -43 -20 -21 -1
7 -7 0 -14 -17 -17 -40 -30 -17 -22 38 9 60 48 138 93 188 57 64 153 120 153
90z m2153 -27 c37 -25 50 -28 108 -25 51 2 78 -2 118 -20 61 -26 136 -104 151
-157 12 -43 13 -112 2 -128 -10 -15 -72 -29 -72 -16 0 6 -14 14 -32 17 -17 4
-52 26 -77 50 -98 91 -220 128 -406 124 l-110 -3 4 35 c6 66 53 121 126 148
51 18 141 7 188 -25z m-318 -48 c-13 -20 -35 -30 -83 -37 -4 0 -13 -6 -21 -12
-11 -10 -13 -9 -9 3 4 14 100 70 119 70 5 0 2 -11 -6 -24z m1348 -6 c44 -22
126 -95 116 -104 -9 -9 -104 15 -153 39 l-51 25 65 -4 c64 -4 64 -3 31 11 -18
8 -55 20 -82 27 -27 6 -55 18 -62 25 -20 22 82 8 136 -19z m-3143 -62 c11 -34
3 -37 -10 -5 l-9 22 0 -24 c-1 -13 -4 -22 -7 -19 -3 3 -2 23 2 44 4 22 9 32
11 24 3 -8 8 -27 13 -42z m490 22 c8 -5 12 -11 10 -14 -3 -2 -14 2 -24 10 -22
15 -10 19 14 4z m2530 -91 c30 -16 73 -45 95 -64 39 -34 39 -35 10 -24 -16 6
-68 14 -115 17 l-85 7 -3 53 c-4 52 -3 54 20 47 12 -4 48 -20 78 -36z m-2794
6 c18 -13 15 -14 -30 -15 -43 0 -53 -4 -83 -36 l-34 -37 3 39 c2 29 9 42 28
51 34 17 92 16 116 -2z m1839 -10 c131 -25 233 -85 284 -169 40 -65 48 -183 9
-127 -15 21 -15 20 -12 -26 4 -46 3 -47 -9 -20 -14 29 -27 27 -27 -5 0 -23 -9
-23 -36 3 l-21 20 4 -25 c4 -21 1 -26 -14 -26 -10 0 -25 6 -32 13 -11 10 -11
8 -2 -10 16 -31 14 -33 -16 -34 l-28 0 25 -11 25 -11 -25 -5 c-14 -2 -28 -8
-31 -14 -4 -6 -20 -6 -45 1 -50 14 -57 5 -11 -14 50 -21 60 -40 16 -32 -32 6
-33 6 -11 -7 l24 -13 -31 -13 c-66 -27 -226 10 -269 63 -10 12 -5 12 40 1 73
-19 90 -16 42 7 -23 11 -52 31 -64 44 l-22 24 47 -15 c27 -8 55 -14 64 -13 9
1 -2 7 -24 14 -39 12 -37 12 52 13 113 1 153 16 65 25 -93 10 -199 54 -249
103 -52 52 -63 99 -40 164 l16 45 -19 -25 c-11 -14 -20 -20 -20 -13 0 7 14 28
30 47 48 54 167 70 315 41z m-2055 -25 c-9 -17 -15 -19 -23 -10 -9 9 -7 15 7
26 25 18 31 12 16 -16z m-382 -94 c42 -25 93 -62 112 -83 19 -20 26 -31 16
-23 -18 14 -19 13 -13 -2 3 -10 5 -18 2 -18 -2 0 -30 23 -62 51 -32 28 -76 60
-98 71 -22 12 -43 26 -47 32 -4 6 -10 8 -13 4 -4 -3 14 -20 39 -37 44 -31 76
-66 76 -85 0 -5 -10 -1 -22 10 -13 11 -50 39 -83 63 -45 32 -52 35 -27 12 18
-17 29 -31 25 -31 -4 0 6 -14 23 -32 16 -18 21 -26 12 -19 -15 11 -18 11 -18
-2 0 -8 6 -18 13 -20 8 -4 8 -6 0 -6 -25 -2 -113 142 -113 184 0 13 7 12 50
-4 27 -10 85 -40 128 -65z m262 80 c0 -3 -4 -8 -10 -11 -5 -3 -10 -1 -10 4 0
6 5 11 10 11 6 0 10 -2 10 -4z m3333 -28 c11 -14 17 -37 17 -72 l-1 -51 -39
75 c-22 41 -40 76 -40 78 0 10 48 -13 63 -30z m-642 -72 c25 -56 25 -111 -2
-139 l-22 -22 6 33 c4 18 2 32 -3 32 -6 0 -10 -6 -10 -14 0 -7 -7 -19 -15 -26
-13 -11 -13 -7 0 36 17 57 19 88 5 79 -12 -7 -12 1 -4 44 8 38 20 31 45 -23z
m401 34 c15 0 14 -7 -12 -47 -16 -27 -50 -68 -75 -93 l-47 -45 20 40 c11 22
28 67 37 99 15 51 19 57 38 52 12 -3 30 -6 39 -6z m68 -30 c-6 -11 -13 -20
-16 -20 -2 0 0 9 6 20 6 11 13 20 16 20 2 0 0 -9 -6 -20z m53 12 c9 -13 -91
-130 -151 -178 -31 -25 -84 -59 -117 -76 -81 -42 -185 -80 -185 -68 0 5 37 28
83 50 95 48 207 118 207 131 0 5 4 9 10 9 17 0 49 33 43 43 -3 6 -1 7 5 3 7
-4 13 -2 13 3 1 6 2 17 3 24 1 6 8 11 14 9 7 -1 20 11 30 28 16 29 36 38 45
22z m205 -84 c15 -233 -130 -435 -377 -526 -88 -32 -230 -40 -321 -19 -89 21
-122 35 -115 47 4 7 11 7 18 2 30 -23 119 -37 232 -37 112 1 125 3 199 33 138
57 253 161 309 279 31 65 32 73 32 190 0 133 15 153 23 31z m-2858 17 c0 -8
-64 -64 -72 -65 -16 0 -7 34 14 51 19 17 58 26 58 14z m-530 -126 c0 -5 -4 -9
-9 -9 -5 0 -31 -16 -57 -36 l-47 -36 24 34 c13 18 24 35 24 38 0 3 6 3 14 2 7
-2 11 0 8 5 -3 4 6 9 19 9 13 1 24 -2 24 -7z m307 -73 c-37 -80 -65 -69 -36
13 10 28 46 56 58 45 1 -1 -8 -28 -22 -58z m-297 27 c0 -13 -81 -75 -88 -68
-4 4 10 22 30 41 36 32 58 43 58 27z m183 -18 c-3 -9 -8 -14 -10 -11 -3 3 -2
9 2 15 9 16 15 13 8 -4z m2333 -30 c18 -45 18 -57 -3 -53 -10 2 -18 9 -18 16
0 7 -5 16 -10 20 -9 6 -11 20 -7 45 4 18 24 4 38 -28z m-2919 19 c-3 -3 -12
-4 -19 -1 -8 3 -5 6 6 6 11 1 17 -2 13 -5z m443 -3 c0 -5 -9 -13 -20 -16 -11
-4 -34 -24 -52 -46 -38 -47 -51 -44 -18 5 31 45 90 82 90 57z m-555 -31 c-19
-8 -19 -9 2 -9 12 -1 25 4 28 9 3 6 26 10 50 10 24 0 47 -4 50 -10 4 -6 -6
-10 -22 -10 -26 -1 -25 -3 18 -25 52 -27 89 -63 48 -46 -13 5 -42 19 -64 30
-26 14 -56 21 -90 20 -27 -1 -39 -3 -25 -6 14 -2 35 -6 47 -8 26 -6 93 -62 93
-78 0 -6 -12 1 -27 15 -16 14 -39 31 -53 37 l-25 12 25 -20 c32 -25 20 -38
-14 -15 -21 13 -39 15 -84 11 -51 -5 -55 -4 -38 9 11 8 36 15 55 15 34 1 34 2
-14 13 -45 11 -48 13 -25 21 13 4 30 14 38 21 7 8 21 14 30 13 14 0 13 -2 -3
-9z m3010 -61 c11 -17 -1 -21 -15 -4 -8 9 -8 15 -2 15 6 0 14 -5 17 -11z
m-2042 -171 c11 -14 18 -31 15 -38 -2 -6 -16 7 -31 30 -29 45 -16 51 16 8z
m1265 -53 c48 -20 57 -40 13 -30 -37 8 -46 -7 -90 -160 -41 -138 -80 -220
-126 -265 -31 -30 -43 -35 -85 -35 -37 0 -54 5 -74 24 -40 37 -48 131 -11 131
9 0 13 -14 12 -48 -2 -58 14 -82 55 -82 48 0 87 52 138 179 l19 50 -32 -19
c-39 -24 -99 -26 -137 -3 -76 45 -65 172 21 235 67 50 205 61 297 23z m-502 1
c15 -39 -66 -276 -111 -326 -8 -8 -17 -39 -21 -67 -6 -45 -4 -54 12 -60 13 -5
27 4 55 35 53 61 77 57 39 -6 -23 -37 -75 -72 -107 -72 -30 0 -53 36 -53 82
l0 38 -42 -22 c-22 -12 -65 -24 -94 -26 -46 -4 -56 -1 -78 21 -22 22 -27 23
-37 10 -35 -41 -118 -56 -151 -27 -16 16 -18 15 -24 0 -9 -23 -61 -48 -84 -41
-27 8 -34 42 -25 119 7 69 -4 91 -32 63 -14 -13 -22 -60 -32 -189 -1 -12 -41
-10 -41 2 0 5 -11 -2 -25 -15 -26 -27 -41 -30 -65 -15 -10 6 -16 32 -18 87 -2
43 -8 82 -13 87 -20 22 -34 -17 -39 -107 -5 -86 -6 -92 -27 -95 -17 -2 -23 2
-23 14 0 14 -9 9 -39 -20 -53 -52 -108 -60 -139 -21 -12 15 -22 40 -22 56 l0
28 -32 -18 c-18 -11 -48 -22 -65 -26 -25 -5 -33 -12 -33 -28 -1 -37 -36 -103
-68 -126 -59 -42 -137 -40 -148 3 -12 48 50 123 121 146 26 8 35 16 31 27 -3
8 -9 32 -12 54 -7 45 -6 44 -43 24 -27 -13 -41 -11 -41 6 0 4 15 12 33 18 27
9 35 19 44 54 7 23 19 51 27 62 15 19 15 18 16 -22 0 -48 8 -53 35 -23 21 23
35 26 35 6 0 -8 -14 -25 -31 -39 l-31 -24 13 -62 12 -62 31 7 c50 10 90 37
108 74 31 62 85 89 116 58 16 -16 15 -60 -3 -84 -13 -17 -14 -16 -8 18 4 30 2
39 -12 44 -24 10 -45 -20 -45 -64 0 -28 3 -33 17 -28 16 6 16 6 1 -11 -12 -13
-14 -23 -7 -36 15 -25 52 -21 81 11 35 36 48 72 48 136 0 38 5 58 16 67 14 12
18 12 27 -2 8 -13 13 -13 33 8 49 49 76 21 82 -88 3 -43 9 -79 14 -79 16 0 36
63 44 139 7 75 26 103 46 67 9 -17 11 -16 24 2 18 26 51 34 69 15 11 -10 15
-38 15 -99 0 -65 3 -84 14 -84 21 0 31 19 55 97 15 52 29 78 52 97 47 40 109
31 109 -15 0 -24 -46 -76 -85 -97 -28 -14 -31 -20 -24 -39 20 -53 115 -1 137
76 16 53 89 117 143 126 41 7 89 -13 89 -37 0 -9 -3 -9 -12 0 -16 16 -53 15
-88 -3 -55 -28 -100 -118 -79 -157 9 -17 17 -19 51 -14 65 11 137 52 144 84
28 122 83 263 121 305 19 21 42 22 49 3z m1829 -85 c-3 -6 -11 -11 -17 -11 -6
0 -6 6 2 15 14 17 26 13 15 -4z m-722 -22 c15 -25 -17 -71 -46 -67 -28 4 -35
43 -11 69 20 23 42 21 57 -2z m-2315 -56 c-2 -10 -16 -17 -37 -18 -18 -2 -76
-24 -127 -49 -150 -74 -229 -173 -175 -217 25 -21 12 -34 -24 -25 -57 14 -30
114 48 182 46 39 148 94 242 129 63 24 78 23 73 -2z m2739 -29 c8 -22 -15 -67
-81 -153 -53 -71 -98 -172 -83 -188 4 -3 21 0 38 8 22 11 52 51 117 159 51 85
94 146 105 148 32 6 18 -37 -52 -156 -93 -157 -108 -189 -94 -203 20 -20 57 0
88 48 40 62 76 88 125 88 47 0 80 -27 80 -67 0 -36 -18 -37 -22 0 -7 59 -98
30 -132 -43 -35 -72 12 -109 137 -108 55 0 77 -3 77 -12 0 -18 -24 -25 -87
-25 -91 0 -169 34 -184 79 -4 10 -13 11 -41 3 -50 -14 -82 3 -86 46 -3 31 -4
31 -27 16 -13 -8 -38 -14 -57 -12 -30 3 -33 6 -36 41 l-3 37 -26 -20 c-42 -33
-101 -22 -115 22 -3 8 -11 7 -28 -5 -67 -47 -109 3 -75 88 6 13 -9 4 -39 -23
-51 -47 -84 -52 -100 -16 -10 21 -10 21 -42 2 -37 -22 -70 -17 -79 11 -4 15
18 106 42 167 3 9 -2 14 -15 14 -26 0 -56 -42 -86 -121 -26 -70 -36 -78 -60
-53 -13 12 -20 14 -29 5 -16 -16 -65 -14 -75 5 -8 13 -12 13 -39 -3 -30 -17
-32 -17 -53 2 -19 17 -21 27 -16 69 6 54 42 116 81 142 22 14 30 15 53 4 15
-7 37 -12 50 -11 29 3 28 -12 -8 -83 -29 -58 -39 -106 -21 -106 18 0 74 75
102 137 29 64 47 78 56 44 4 -16 8 -17 34 -8 35 14 62 1 67 -32 2 -12 -6 -51
-18 -86 -12 -36 -20 -70 -18 -76 8 -25 72 48 104 118 34 74 39 79 62 64 10 -6
8 -22 -13 -77 -42 -108 -46 -124 -30 -124 15 0 87 78 113 122 16 28 45 37 57
18 3 -6 -8 -46 -26 -90 -17 -44 -29 -83 -25 -87 15 -15 52 18 80 72 33 64 82
105 124 105 29 0 72 -35 72 -59 0 -9 20 20 45 64 58 103 97 137 112 99z
m-1037 -359 c343 -30 870 -145 870 -191 0 -18 -13 -18 -75 1 -250 77 -546 132
-832 156 -183 15 -645 6 -803 -15 -225 -31 -395 -69 -682 -153 -13 -4 -18 0
-18 15 0 16 17 25 108 51 227 66 480 114 742 140 143 14 504 12 690 -4z m-28
-151 c84 -8 167 -19 183 -23 l30 -8 -30 -12 c-64 -26 -255 -70 -355 -82 -138
-16 -374 -6 -501 21 -118 24 -229 58 -229 69 0 6 89 19 305 45 90 10 461 4
597 -10z m798 -92 c0 -16 -187 -149 -287 -206 -186 -104 -432 -189 -633 -217
-110 -15 -361 -15 -470 0 -244 35 -495 127 -713 262 -94 59 -197 137 -197 150
0 15 26 11 40 -7 23 -27 221 -154 312 -200 404 -203 847 -247 1265 -125 227
66 463 188 628 325 30 25 55 33 55 18z m-329 -94 c6 -12 6 -18 0 -18 -10 0
-41 51 -41 67 1 9 26 -22 41 -49z m-1587 36 c9 -3 16 -11 16 -16 0 -6 -6 -8
-14 -5 -9 4 -21 -5 -31 -19 -23 -35 -30 -23 -10 15 17 34 17 34 39 25z m1506
-96 c0 -5 -4 -8 -8 -8 -10 0 -41 68 -34 75 6 5 41 -52 42 -67z m-1400 28 c0
-7 -6 -25 -13 -38 -11 -22 -14 -23 -26 -11 -10 11 -11 20 -2 39 11 26 41 33
41 10z m1310 -68 c0 -4 -9 -8 -20 -8 -11 0 -20 -4 -20 -10 0 -5 -4 -10 -10
-10 -5 0 -10 21 -10 47 l0 47 30 -29 c17 -16 30 -32 30 -37z m-2480 28 c0 -2
-7 -7 -16 -10 -8 -3 -12 -2 -9 4 6 10 25 14 25 6z m1290 -36 c0 -38 -12 -52
-25 -29 -4 6 -13 8 -21 5 -20 -8 -17 1 9 34 30 39 37 37 37 -10z m1030 10 c0
-6 -8 -10 -17 -8 -12 2 -19 -5 -21 -21 -3 -21 -1 -23 23 -19 16 4 24 1 22 -6
-5 -16 -36 -20 -52 -6 -18 15 -19 42 -3 58 15 15 48 16 48 2z m-923 -35 c-4
-26 -2 -35 9 -35 8 0 14 -4 14 -10 0 -12 -20 -13 -37 -2 -9 6 -10 17 -2 45 13
47 23 48 16 2z m792 -44 c1 -16 -3 -21 -8 -15 -9 9 -15 48 -11 69 3 16 19 -28
19 -54z m-629 39 c0 -5 -8 -10 -17 -11 -11 0 -13 -3 -5 -6 17 -7 15 -23 -3
-23 -8 0 -15 -4 -15 -10 0 -5 7 -10 15 -10 8 0 15 -4 15 -9 0 -4 -12 -6 -26
-3 -20 4 -24 9 -20 26 3 11 6 29 6 39 0 11 8 17 25 17 14 0 25 -4 25 -10z
m131 -19 c21 -16 22 -22 11 -45 -8 -18 -19 -26 -37 -26 -22 0 -25 4 -25 38 0
57 12 65 51 33z m395 -41 c8 0 14 -5 14 -11 0 -6 -10 -9 -22 -7 -19 2 -23 10
-25 43 l-2 40 11 -32 c6 -18 17 -33 24 -33z m-130 15 c18 -44 18 -49 -2 -41
-9 4 -23 1 -30 -5 -8 -6 -14 -8 -14 -4 0 13 23 85 27 85 2 0 11 -16 19 -35z"/>
<path d="M3389 4633 l-24 -28 28 24 c25 23 32 31 24 31 -2 0 -14 -12 -28 -27z"/>
<path d="M2588 4213 c7 -3 16 -2 19 1 4 3 -2 6 -13 5 -11 0 -14 -3 -6 -6z"/>
<path d="M2651 4106 c2 -2 15 -9 29 -15 24 -11 24 -11 6 3 -16 13 -49 24 -35
12z"/>
<path d="M2745 4055 c66 -39 115 -66 115 -61 0 7 -134 86 -146 86 -5 0 9 -11
31 -25z"/>
<path d="M2157 3856 c-14 -26 -24 -46 -21 -46 8 0 57 81 52 86 -3 3 -17 -15
-31 -40z"/>
<path d="M2226 3885 c-9 -26 -7 -32 5 -12 6 10 9 21 6 23 -2 3 -7 -2 -11 -11z"/>
<path d="M3090 3595 c0 -4 8 -19 18 -33 10 -15 22 -36 26 -46 3 -10 9 -16 12
-13 7 6 -32 83 -46 92 -5 3 -10 3 -10 0z"/>
<path d="M3249 3457 c36 -39 41 -42 41 -29 0 4 -17 20 -38 36 l-37 29 34 -36z"/>
<path d="M2750 3476 c0 -2 8 -10 18 -17 15 -13 16 -12 3 4 -13 16 -21 21 -21
13z"/>
<path d="M3135 3460 c-24 -27 -50 -33 -77 -20 -17 8 -16 5 7 -14 l30 -26 34
35 c19 19 33 37 30 40 -3 3 -14 -4 -24 -15z"/>
<path d="M2679 3418 c-24 -29 -36 -47 -26 -39 20 16 81 91 74 91 -3 0 -25 -24
-48 -52z"/>
<path d="M2935 3460 c-3 -5 -3 -10 1 -10 4 0 -5 -15 -22 -32 l-29 -33 31 28
c17 15 31 34 31 42 0 18 -3 19 -12 5z"/>
<path d="M2990 3453 c0 -5 10 -18 23 -29 l22 -19 -20 25 c-11 14 -21 27 -22
29 -2 2 -3 0 -3 -6z"/>
<path d="M2899 3433 c-13 -16 -12 -17 4 -4 16 13 21 21 13 21 -2 0 -10 -8 -17
-17z"/>
<path d="M2789 3422 c5 -10 18 -25 27 -33 11 -9 9 -2 -6 19 -26 35 -36 42 -21
14z"/>
<path d="M3248 3424 c12 -22 62 -71 62 -60 0 3 -16 23 -36 43 -20 20 -32 27
-26 17z"/>
<path d="M3129 3403 c-13 -16 -12 -17 4 -4 16 13 21 21 13 21 -2 0 -10 -8 -17
-17z"/>
<path d="M2803 3327 c-11 -12 -39 -41 -62 -64 -42 -44 -48 -53 -32 -53 12 0
125 129 119 135 -2 2 -13 -6 -25 -18z"/>
<path d="M2640 3333 c0 -8 51 -96 54 -91 1 2 8 12 16 23 14 18 13 19 -1 8 -13
-11 -19 -7 -38 27 -21 38 -31 48 -31 33z"/>
<path d="M3056 3311 c-46 -48 -71 -57 -103 -36 l-28 18 19 -21 c11 -12 28 -22
38 -22 11 0 16 -4 13 -10 -10 -16 -17 -13 -74 34 -30 25 -58 43 -63 40 -4 -3
-8 0 -8 7 0 7 -3 10 -6 6 -6 -6 63 -107 73 -107 2 0 -5 14 -17 31 -33 45 -19
44 25 -1 22 -22 44 -40 50 -40 15 1 46 30 76 70 48 66 51 79 5 31z"/>
<path d="M3296 3323 c-4 -12 -16 -33 -27 -48 -21 -25 -22 -25 -48 -9 l-26 16
23 -23 c18 -19 26 -22 40 -13 23 15 55 70 49 86 -2 8 -7 4 -11 -9z"/>
<path d="M3094 3318 c-4 -7 -14 -23 -22 -35 -8 -13 -12 -23 -9 -23 9 0 50 61
44 66 -3 3 -8 -1 -13 -8z"/>
<path d="M2620 3317 c0 -31 166 -315 177 -303 3 3 -4 18 -16 34 -28 40 -27 51
4 22 l24 -23 35 31 c19 16 55 44 80 62 26 17 44 35 41 40 -3 5 -15 0 -25 -10
-11 -11 -25 -20 -30 -20 -6 0 -31 -19 -56 -42 l-46 -42 -36 39 c-20 22 -40 39
-44 38 -4 -2 -21 24 -38 57 -36 71 -70 128 -70 117z m139 -222 c0 -5 -6 -1
-14 9 -8 11 -15 24 -15 30 0 5 7 1 15 -10 8 -10 14 -23 14 -29z"/>
<path d="M3139 3305 c6 -11 29 -40 52 -65 24 -27 33 -33 21 -15 -28 41 -85
105 -73 80z"/>
<path d="M3315 3273 c-10 -21 -22 -46 -27 -55 -5 -10 -6 -18 -4 -18 8 0 58
101 53 106 -2 3 -12 -12 -22 -33z"/>
<path d="M3060 3226 c-11 -19 -26 -37 -33 -40 -7 -2 -5 -5 5 -5 11 -1 26 15
38 39 25 49 19 52 -10 6z"/>
<path d="M2670 3165 c0 -18 57 -109 81 -130 l24 -20 -19 23 c-11 13 -35 49
-53 80 -18 31 -32 53 -33 47z"/>
<path d="M2952 3118 c-16 -24 -53 -65 -82 -92 -34 -32 -48 -51 -41 -57 6 -5 9
-7 7 -3 -2 3 15 23 39 45 24 22 58 62 77 89 18 27 36 50 39 50 4 0 39 -38 80
-85 74 -86 87 -99 70 -67 -14 26 -141 162 -151 162 -5 0 -22 -19 -38 -42z"/>
<path d="M3085 3100 c10 -11 20 -20 23 -20 3 0 -3 9 -13 20 -10 11 -20 20 -23
20 -3 0 3 -9 13 -20z"/>
<path d="M3233 3078 c-31 -44 -63 -101 -46 -83 29 31 89 125 80 125 -2 0 -17
-19 -34 -42z"/>
<path d="M2540 3005 c0 -6 11 -27 25 -47 14 -20 25 -43 25 -50 1 -14 29 -68
30 -56 0 4 -4 18 -10 32 -10 29 0 35 20 11 20 -24 44 -18 81 22 l34 37 -38
-32 c-21 -18 -42 -32 -47 -32 -11 0 -70 57 -98 95 -12 17 -22 25 -22 20z"/>
<path d="M2740 2863 c-34 -48 -52 -79 -40 -68 12 11 40 46 62 78 21 31 41 57
44 57 3 0 41 -38 86 -85 44 -47 85 -85 90 -85 19 0 138 92 160 123 18 27 14
24 -28 -14 -106 -97 -131 -97 -234 6 l-77 76 -63 -88z"/>
<path d="M2860 2925 c13 -14 26 -25 28 -25 3 0 -5 11 -18 25 -13 14 -26 25
-28 25 -3 0 5 -11 18 -25z"/>
<path d="M3124 2909 c-21 -22 -52 -48 -69 -58 -56 -35 -69 -34 -121 5 -46 34
-47 35 -20 6 35 -38 78 -56 111 -48 14 4 51 33 83 66 l59 60 17 -38 c25 -53
98 -164 104 -157 3 2 -11 29 -30 58 -20 29 -45 72 -57 94 -11 23 -25 44 -29
47 -5 3 -26 -13 -48 -35z"/>
<path d="M2575 2860 c10 -11 20 -20 23 -20 3 0 -3 9 -13 20 -10 11 -20 20 -23
20 -3 0 3 -9 13 -20z"/>
<path d="M3230 2763 c-8 -3 -27 -17 -42 -31 l-27 -25 -198 2 c-169 2 -203 5
-240 21 -50 22 -58 13 -12 -14 27 -16 58 -18 277 -19 179 -1 255 3 277 12 27
11 28 13 11 23 -13 7 -20 7 -25 0 -3 -6 -20 -13 -36 -17 l-30 -6 33 15 c17 8
32 22 32 31 0 8 -1 15 -2 14 -2 0 -10 -3 -18 -6z"/>
<path d="M4727 3433 c-4 -3 -7 -11 -7 -17 0 -6 5 -5 12 2 6 6 9 14 7 17 -3 3
-9 2 -12 -2z"/>
<path d="M3898 3068 c5 -5 16 -8 23 -6 8 3 3 7 -10 11 -17 4 -21 3 -13 -5z"/>
<path d="M3365 2411 c-113 -28 -180 -126 -142 -206 11 -23 25 -35 46 -40 56
-12 110 32 152 125 17 36 41 77 55 91 l25 26 -32 7 c-38 7 -64 6 -104 -3z"/>
<path d="M2985 2353 c-4 -10 -20 -56 -36 -102 -29 -86 -36 -120 -19 -89 14 23
71 200 66 205 -2 2 -7 -4 -11 -14z"/>
<path d="M2514 2175 c-24 -16 -50 -72 -40 -83 11 -10 66 55 66 78 0 24 0 24
-26 5z"/>
<path d="M1553 1870 c-71 -32 -96 -117 -39 -128 9 -2 32 12 51 31 29 29 35 43
35 76 0 23 -1 41 -2 41 -2 0 -22 -9 -45 -20z"/>
<path d="M4507 2159 c-15 -27 -25 -49 -22 -49 6 0 58 90 54 95 -2 2 -16 -19
-32 -46z"/>
<path d="M3592 2173 c-35 -50 -56 -143 -33 -143 25 0 98 128 88 153 -10 25
-33 20 -55 -10z"/>
<path d="M4318 2080 c-26 -16 -70 -96 -66 -122 5 -40 43 -35 89 11 35 35 40
45 37 78 -3 41 -26 53 -60 33z"/>
<path d="M2457 1493 c-4 -3 -7 -11 -7 -17 0 -6 5 -5 12 2 6 6 9 14 7 17 -3 3
-9 2 -12 -2z"/>
<path d="M2970 1338 c0 -30 1 -31 16 -16 9 9 14 24 11 32 -11 27 -27 17 -27
-16z"/>
<path d="M3240 1330 c0 -5 5 -10 11 -10 5 0 7 5 4 10 -3 6 -8 10 -11 10 -2 0
-4 -4 -4 -10z"/>
<path d="M5015 1534 c39 -21 75 -35 75 -29 0 7 -78 45 -92 45 -7 0 1 -7 17
-16z"/>
<path d="M1180 1470 c-8 -5 -10 -10 -5 -10 6 0 17 5 25 10 8 5 11 10 5 10 -5
0 -17 -5 -25 -10z"/>
</g>
</svg>
